# xmcd
#
# Track frame offsets:
#	150
#	20942
#	43510
#	65517
#	84317
#	104912
#	119267
#	134050
#	149407
#	171800
#
# Disc length: 2576 seconds
#
# Revision: 2
# Processed by: cddbd v1.4PL0 Copyright (c) Steve Scherf et al.
# Submitted via: audiograbber 1.81.03
#
DISCID=980a0e0a
DTITLE=Mary Chapin Carpenter - Hometown Girl
DYEAR=1987
DGENRE=Country
TTITLE0=A Lot Of Me
TTITLE1=Other Streets And Other Towns
TTITLE2=Hometown Girl
TTITLE3=Downtown Train
TTITLE4=Family Hands
TTITLE5=A Road Is Just A Road
TTITLE6=Come On Home
TTITLE7=Waltz
TTITLE8=Just Because
TTITLE9=Heroes And Heroines
EXTD=
EXTT0=
EXTT1=
EXTT2=
EXTT3=
EXTT4=
EXTT5=
EXTT6=
EXTT7=
EXTT8=
EXTT9=
PLAYORDER=
